<?xml version="1.0" encoding="utf-8"?>
<!-- Generator: Adobe Illustrator 25.4.1, SVG Export Plug-In . SVG Version: 6.00 Build 0)  -->
<svg version="1.1" id="Layer_1" xmlns="http://www.w3.org/2000/svg" xmlns:xlink="http://www.w3.org/1999/xlink" x="0px" y="0px"
	 viewBox="0 0 200 30" style="enable-background:new 0 0 200 30;" xml:space="preserve">
<style type="text/css">
	.st0{fill:#293C56;}
</style>
<g>
	<g>
		<g>
			<circle class="st0" cx="35.5" cy="14" r="5.2"/>
		</g>
		<g>
			<polygon class="st0" points="34.5,10.2 33,10.9 28.5,0.7 29,0.5 			"/>
		</g>
		<g>
			<polygon class="st0" points="40.3,15.7 39.5,14 64.5,2.6 64.8,3.2 			"/>
		</g>
		<g>
			<polygon class="st0" points="33.2,17.1 34.1,18.8 10.6,29.5 10.4,29 			"/>
		</g>
		<rect x="26.3" y="8.5" transform="matrix(0.3706 -0.9288 0.9288 0.3706 8.1274 32.7862)" class="st0" width="3.9" height="3.9"/>
		<rect x="35.4" y="4.1" transform="matrix(0.3706 -0.9288 0.9288 0.3706 17.9019 38.4119)" class="st0" width="3.9" height="3.9"/>
	</g>
</g>
<g>
	<g>
		<path class="st0" d="M77.4,20.5l-0.9-3.4h-5.7l-0.9,3.4h-5.2l5.8-18.4h7.3l5.2,18.4H77.4z M71.7,13.7h3.9l-1.9-7.2L71.7,13.7z"/>
		<path class="st0" d="M89.5,3.8c0,1.7-0.8,2.4-2.6,2.4c-1.8,0-2.6-0.7-2.6-2.4s0.8-2.4,2.6-2.4C88.7,1.4,89.5,2.1,89.5,3.8z
			 M84.5,20.5V7.4h4.7v13.1C89.2,20.5,84.5,20.5,84.5,20.5z"/>
		<path class="st0" d="M99.4,11.1c-1.8,0-2.6,0.9-2.6,2.9v6.6h-4.7V7.4h3.7l0.6,1.1c0.9-1,1.8-1.4,3-1.4h2.1v3.9H99.4L99.4,11.1z"/>
		<path class="st0" d="M114.7,16.3c0,3.1-1.9,4.5-6.4,4.5c-4.1,0-5.9-1.3-5.9-4.2h4.5c0,1.1,0.5,1.6,1.6,1.6s1.6-0.4,1.6-1.3
			c0-2.4-7.6-0.3-7.6-5.5c0-2.9,1.8-4.2,6-4.2c4,0,5.8,1.2,5.8,3.9h-4.2c0-0.9-0.5-1.3-1.6-1.3s-1.6,0.3-1.6,1.1
			C106.8,12.9,114.7,11.1,114.7,16.3z"/>
		<path class="st0" d="M123.8,17.1h2.4v3.4H122c-2.6,0-4.2-1.6-4.2-4.2v-6h-2.1V7.4h2.1V4h4.7v3.4h3.7v2.9h-3.7v5.5
			C122.5,16.6,123,17.1,123.8,17.1z"/>
		<path class="st0" d="M135.6,11.1c-1.8,0-2.6,0.9-2.6,2.9v6.6h-4.7V7.4h3.7l0.6,1.1c0.9-1,1.8-1.4,3-1.4h2.1v3.9H135.6L135.6,11.1z
			"/>
		<path class="st0" d="M145.6,17.9c1.2,0,1.9-0.5,2.1-1.6h4.5c-0.6,3.1-2.5,4.5-6.6,4.5c-5,0-7.1-2-7.1-6.8s2.1-6.8,7.1-6.8
			s7.1,2,7.1,6.8v1.3h-9.4C143.2,17.1,143.9,17.9,145.6,17.9z M143.2,12.7h4.7c0-1.8-0.7-2.6-2.4-2.6
			C143.9,10,143.2,10.8,143.2,12.7z"/>
		<path class="st0" d="M160.3,12.1h1.8v-0.5c0-1.3-0.5-1.8-1.7-1.8c-1.2,0-1.7,0.5-1.7,1.6h-4.5c0-2.9,1.9-4.2,6.3-4.2
			c4.4,0,6.3,1.5,6.3,5v8.4h-3.7l-0.6-0.9c-0.9,0.8-2.1,1.2-3.9,1.2c-3.5,0-5-1.3-5-4.2C153.7,13.5,155.7,12.1,160.3,12.1z
			 M160.8,14.8c-1.6,0-2.4,0.4-2.4,1.6c0,1,0.5,1.3,1.6,1.3c1.5,0,2.1-0.7,2.1-2.4v-0.5H160.8z"/>
		<path class="st0" d="M173.9,20.5h-4.7V7.4h3.7l0.7,1.3c0.7-1.1,1.9-1.6,3.5-1.6c1.7,0,2.9,0.5,3.7,1.7c0.8-1.1,2.1-1.7,3.9-1.7
			c3.5,0,5,1.9,5,6.3v7.1h-4.7v-7.1c0-2-0.5-2.9-1.6-2.9s-1.6,0.9-1.6,2.9v7.1H177v-7.1c0-2-0.5-2.9-1.6-2.9s-1.6,0.9-1.6,2.9
			L173.9,20.5L173.9,20.5z"/>
	</g>
</g>
<g>
	<path class="st0" d="M64.9,25c0.2-0.4,0.5-0.8,0.9-1c0.4-0.2,0.8-0.3,1.2-0.3c0.4,0,0.7,0.1,1,0.2c0.3,0.2,0.5,0.4,0.7,0.6v-0.8
		h1.7v5.6h-1.7v-0.8c-0.2,0.3-0.4,0.5-0.7,0.6c-0.3,0.2-0.6,0.2-1,0.2c-0.5,0-0.9-0.1-1.2-0.4c-0.4-0.2-0.7-0.6-0.9-1
		c-0.2-0.4-0.3-0.9-0.3-1.5S64.7,25.4,64.9,25z M68.4,25.5c-0.2-0.2-0.5-0.4-0.9-0.4s-0.6,0.1-0.9,0.4c-0.2,0.2-0.4,0.6-0.4,1
		s0.1,0.8,0.4,1s0.5,0.4,0.9,0.4s0.6-0.1,0.9-0.4c0.2-0.2,0.4-0.6,0.4-1S68.6,25.8,68.4,25.5z"/>
	<path class="st0" d="M86.2,27.7l1.2-4h1.8l-2,5.6h-2.1l-2-5.6H85L86.2,27.7z"/>
	<path class="st0" d="M102.1,22.9c-0.2-0.2-0.3-0.4-0.3-0.7c0-0.3,0.1-0.5,0.3-0.7c0.2-0.2,0.4-0.3,0.7-0.3c0.3,0,0.5,0.1,0.7,0.3
		c0.2,0.2,0.3,0.4,0.3,0.7c0,0.3-0.1,0.5-0.3,0.7c-0.2,0.2-0.4,0.3-0.7,0.3C102.5,23.1,102.3,23.1,102.1,22.9z M103.7,23.7v5.6H102
		v-5.6H103.7z"/>
	<path class="st0" d="M116.9,25c0.2-0.4,0.5-0.8,0.9-1c0.4-0.2,0.8-0.3,1.2-0.3c0.4,0,0.7,0.1,1,0.2c0.3,0.2,0.5,0.4,0.7,0.6v-0.8
		h1.7v5.6h-1.7v-0.8c-0.2,0.3-0.4,0.5-0.7,0.6c-0.3,0.2-0.6,0.2-1,0.2c-0.5,0-0.9-0.1-1.2-0.4c-0.4-0.2-0.7-0.6-0.9-1
		c-0.2-0.4-0.3-0.9-0.3-1.5S116.7,25.4,116.9,25z M120.4,25.5c-0.2-0.2-0.5-0.4-0.9-0.4s-0.6,0.1-0.9,0.4c-0.2,0.2-0.4,0.6-0.4,1
		s0.1,0.8,0.4,1s0.5,0.4,0.9,0.4s0.6-0.1,0.9-0.4c0.2-0.2,0.4-0.6,0.4-1S120.6,25.8,120.4,25.5z"/>
	<path class="st0" d="M138.8,27.9v1.5H138c-0.6,0-1.1-0.2-1.5-0.5s-0.5-0.8-0.5-1.5v-2.2h-0.7v-1.4h0.7v-1.4h1.7v1.4h1.1v1.4h-1.1
		v2.2c0,0.2,0,0.3,0.1,0.4c0.1,0.1,0.2,0.1,0.4,0.1H138.8z"/>
	<path class="st0" d="M151.9,22.9c-0.2-0.2-0.3-0.4-0.3-0.7c0-0.3,0.1-0.5,0.3-0.7c0.2-0.2,0.4-0.3,0.7-0.3c0.3,0,0.5,0.1,0.7,0.3
		c0.2,0.2,0.3,0.4,0.3,0.7c0,0.3-0.1,0.5-0.3,0.7c-0.2,0.2-0.4,0.3-0.7,0.3C152.3,23.1,152.1,23.1,151.9,22.9z M153.5,23.7v5.6h-1.7
		v-5.6H153.5z"/>
	<path class="st0" d="M167.8,29c-0.4-0.2-0.8-0.6-1-1c-0.2-0.4-0.4-0.9-0.4-1.5c0-0.6,0.1-1.1,0.4-1.5c0.3-0.4,0.6-0.8,1-1
		c0.4-0.2,0.9-0.3,1.5-0.3s1,0.1,1.5,0.3c0.4,0.2,0.8,0.6,1,1c0.3,0.4,0.4,0.9,0.4,1.5s-0.1,1.1-0.4,1.5c-0.3,0.4-0.6,0.8-1.1,1
		s-0.9,0.4-1.5,0.4S168.2,29.3,167.8,29z M170.1,27.5c0.2-0.2,0.3-0.6,0.3-1s-0.1-0.8-0.3-1s-0.5-0.4-0.8-0.4
		c-0.3,0-0.6,0.1-0.8,0.4c-0.2,0.2-0.3,0.6-0.3,1c0,0.4,0.1,0.8,0.3,1c0.2,0.2,0.5,0.4,0.8,0.4C169.6,27.9,169.9,27.8,170.1,27.5z"
		/>
	<path class="st0" d="M190.1,24.3c0.4,0.4,0.6,1,0.6,1.7v3.3h-1.7v-3c0-0.4-0.1-0.7-0.3-0.9c-0.2-0.2-0.5-0.3-0.8-0.3
		c-0.3,0-0.6,0.1-0.8,0.3c-0.2,0.2-0.3,0.5-0.3,0.9v3h-1.7v-5.6h1.7v0.7c0.2-0.2,0.4-0.4,0.7-0.6c0.3-0.1,0.6-0.2,1-0.2
		C189.1,23.7,189.7,23.9,190.1,24.3z"/>
</g>
</svg>
