<svg xmlns="http://www.w3.org/2000/svg" viewBox="0 0 249.97 49.25"><defs><style>.cls-1,.cls-2{fill:#fff;}.cls-2{font-size:41.32px;font-family:BricolageGrotesque-Bold, Bricolage Grotesque;font-weight:700;}.cls-3{letter-spacing:0em;}.cls-4{letter-spacing:0.01em;}.cls-5{letter-spacing:0em;}.cls-6,.cls-7,.cls-8{font-family:BricolageGrotesque-ExtraLight, Bricolage Grotesque;font-weight:200;}.cls-6{letter-spacing:-0.01em;}.cls-7{letter-spacing:0em;}</style></defs><title>Scotty E&amp;amp;E Line whiteldpi</title><g id="Layer_2" data-name="Layer 2"><g id="Layer_1-2" data-name="Layer 1"><path class="cls-1" d="M22,5.94a13.48,13.48,0,0,0,8.5,8.45c-4,1.68-7,4.24-8.47,8.56a13.48,13.48,0,0,0-8.59-8.51A13.67,13.67,0,0,0,22,5.94Z"/><path class="cls-1" d="M0,26.79c-.09-.74.29-1,1-.71a15.69,15.69,0,0,1,9.34,9.44c.21.55.07.84-.6.86C5.48,36.47.07,31.17,0,26.79Z"/><path class="cls-1" d="M0,24c.19-4.38,5.06-9.25,9.45-9.47.79,0,1.15.13.81,1a15.71,15.71,0,0,1-9.2,9.2C.22,25,0,24.84,0,24Z"/><path class="cls-1" d="M12.26,36.37c-1,.06-.81-.5-.62-1a15.66,15.66,0,0,1,9.29-9.3c.49-.17,1-.35,1,.53C22,31,16.62,36.38,12.26,36.37Z"/><text class="cls-2" transform="translate(36.91 34.29)">Sc<tspan class="cls-3" x="48.79" y="0">o</tspan><tspan class="cls-4" x="73.17" y="0">t</tspan><tspan class="cls-5" x="89.36" y="0">t</tspan><tspan x="105.19" y="0">y </tspan><tspan class="cls-6" x="138.24" y="0">E</tspan><tspan class="cls-7" x="160.63" y="0">&amp;</tspan><tspan class="cls-8" x="190.34" y="0">E</tspan></text></g></g></svg>