<svg xmlns="http://www.w3.org/2000/svg" viewBox="0 0 490.7 139.53"><defs><style>.cls-1{fill:#f15622;}.cls-2,.cls-3{fill:#1d427b;}.cls-3{font-size:68.08px;font-family:BricolageGrotesque-Bold, Bricolage Grotesque;font-weight:700;}.cls-4{letter-spacing:0em;}.cls-5{letter-spacing:0.01em;}.cls-6{letter-spacing:0em;}.cls-7,.cls-8,.cls-9{font-family:BricolageGrotesque-ExtraLight, Bricolage Grotesque;font-weight:200;}.cls-7{letter-spacing:-0.01em;}.cls-8{letter-spacing:0em;}</style></defs><title>Scotty E&amp;amp;E Line Colored_1ldpi</title><g id="Layer_2" data-name="Layer 2"><g id="Layer_1-2" data-name="Layer 1"><path class="cls-1" d="M100.68,0c7.27,18.85,19.52,32,39,38.73C121.11,46.42,107.36,58.19,100.81,78c-7.2-19.27-20-32.21-39.37-39C80.7,31.93,93.5,19.21,100.68,0Z"/><path class="cls-2" d="M.07,95.59C-.37,92.17,1.36,91,4.52,92.33c20.41,8.32,35.16,22.29,42.8,43.26.94,2.56.32,3.87-2.76,3.94C25.11,140,.3,115.65.07,95.59Z"/><path class="cls-2" d="M.16,82.63C1,62.52,23.38,40.21,43.53,39.21c3.62-.18,5.25.6,3.67,4.55C39.17,63.87,25.26,78.1,5,86,1,87.53,0,86.64.16,82.63Z"/><path class="cls-2" d="M56.18,139.5c-4.72.28-3.67-2.28-2.83-4.46,3.82-9.88,9.18-18.87,16.84-26.21,7.45-7.14,15.87-13,25.75-16.4,2.28-.78,4.54-1.6,4.62,2.43C100.93,114.89,76.17,139.55,56.18,139.5Z"/><text class="cls-3" transform="translate(139.65 108.17)">Sc<tspan class="cls-4" x="80.4" y="0">o</tspan><tspan class="cls-5" x="120.56" y="0">t</tspan><tspan class="cls-6" x="147.24" y="0">t</tspan><tspan x="173.32" y="0">y </tspan><tspan class="cls-7" x="227.77" y="0">E</tspan><tspan class="cls-8" x="264.67" y="0">&amp;</tspan><tspan class="cls-9" x="313.62" y="0">E</tspan></text></g></g></svg>