<svg xmlns="http://www.w3.org/2000/svg" viewBox="0 0 213.06 174.16"><defs><style>.cls-1,.cls-2{fill:#fff;}.cls-2{font-size:41.32px;font-family:BricolageGrotesque-Bold, Bricolage Grotesque;font-weight:700;}.cls-3{letter-spacing:0em;}.cls-4{letter-spacing:0.01em;}.cls-5{letter-spacing:0em;}.cls-6,.cls-7,.cls-8{font-family:BricolageGrotesque-ExtraLight, Bricolage Grotesque;font-weight:200;}.cls-6{letter-spacing:-0.01em;}.cls-7{letter-spacing:0em;}</style></defs><title>Scotty E&amp;amp;E Full Whiteldpi</title><g id="Layer_2" data-name="Layer 2"><g id="Layer_1-2" data-name="Layer 1"><path class="cls-1" d="M131,0c5.77,14.94,15.48,25.4,30.9,30.71-14.7,6.09-25.6,15.43-30.79,31.11-5.71-15.28-15.82-25.54-31.22-30.91C115.15,25.32,125.3,15.23,131,0Z"/><path class="cls-1" d="M51.22,75.79c-.34-2.71,1-3.6,3.53-2.59,16.18,6.6,27.88,17.68,33.94,34.31.74,2,.25,3.06-2.19,3.12C71.08,111,51.41,91.7,51.22,75.79Z"/><path class="cls-1" d="M51.3,65.51C52,49.57,69.7,31.88,85.68,31.09c2.87-.14,4.17.47,2.91,3.6-6.36,16-17.39,27.24-33.43,33.47C52,69.4,51.16,68.69,51.3,65.51Z"/><path class="cls-1" d="M95.72,110.6c-3.75.23-2.92-1.81-2.25-3.53a56.48,56.48,0,0,1,13.35-20.78,55.73,55.73,0,0,1,20.42-13c1.8-.62,3.6-1.28,3.66,1.92C131.19,91.09,111.56,110.64,95.72,110.6Z"/><text class="cls-2" transform="translate(0 159.21)">Sc<tspan class="cls-3" x="48.79" y="0">o</tspan><tspan class="cls-4" x="73.17" y="0">t</tspan><tspan class="cls-5" x="89.36" y="0">t</tspan><tspan x="105.19" y="0">y </tspan><tspan class="cls-6" x="138.24" y="0">E</tspan><tspan class="cls-7" x="160.63" y="0">&amp;</tspan><tspan class="cls-8" x="190.34" y="0">E</tspan></text></g></g></svg>