<svg xmlns="http://www.w3.org/2000/svg" viewBox="0 0 110.72 110.63"><defs><style>.cls-1{fill:#f15622;}.cls-2{fill:#1d427b;}</style></defs><title>Scotty E&amp;amp;E Colored Iconldpi</title><g id="Layer_2" data-name="Layer 2"><g id="Layer_1-2" data-name="Layer 1"><path class="cls-1" d="M79.82,0c5.77,14.94,15.48,25.4,30.9,30.71C96,36.8,85.12,46.14,79.93,61.82,74.22,46.54,64.11,36.28,48.72,30.91,64,25.32,74.13,15.23,79.82,0Z"/><path class="cls-2" d="M.05,75.79c-.34-2.71,1-3.6,3.53-2.59,16.18,6.6,27.88,17.68,33.94,34.31.74,2,.25,3.06-2.19,3.12C19.91,111,.24,91.7.05,75.79Z"/><path class="cls-2" d="M.13,65.51c.69-15.94,18.4-33.63,34.38-34.42,2.87-.14,4.17.47,2.91,3.6C31.06,50.64,20,61.93,4,68.16.81,69.4,0,68.69.13,65.51Z"/><path class="cls-2" d="M44.55,110.6c-3.75.23-2.92-1.81-2.25-3.53A56.48,56.48,0,0,1,55.65,86.29a55.73,55.73,0,0,1,20.42-13c1.8-.62,3.6-1.28,3.66,1.92C80,91.09,60.39,110.64,44.55,110.6Z"/></g></g></svg>